<?xml version="1.0" standalone="no"?>
<!DOCTYPE svg PUBLIC "-//W3C//DTD SVG 1.1//EN" "http://www.w3.org/Graphics/SVG/1.1/DTD/svg11.dtd">
<svg xmlns="http://www.w3.org/2000/svg" xmlns:xlink="http://www.w3.org/1999/xlink" version="1.1" id="Layer_1" x="0px" y="0px" viewBox="0 0 936 936" style="enable-background:new 0 0 936 936;" xml:space="preserve" width="100" height="100">
<g id="Layer_4">
	<g>
		<path d="M468,36C229.4,36,36,229.4,36,468s193.4,432,432,432s432-193.4,432-432S706.6,36,468,36z M720.1,318.7    c35.1,0,64.1-26,68.9-59.7c0.6,4.3,0.9,8.7,0.9,13.1c0,51.3-41.6,92.9-92.9,92.9c-51.3,0-92.9-41.6-92.9-92.9s41.6-92.9,92.9-92.9    c4.5,0,8.8,0.3,13.1,0.9c-33.8,4.8-59.7,33.8-59.7,68.9C650.4,287.5,681.6,318.7,720.1,318.7z M140.9,382.2    c25,8.6,71.2,25,93.5,57.6c13,19,14.9,37.3,20.7,58.7c5.7,21.2,16.7,29.5,33.7,40.4c1,0.7,2,1.3,3,2l-16.6,38.6l-17.7,2.4    c-35.7-39.6-71.3-79-106.4-117.8c2.7-4.8,4.3-10.3,4.3-16.2c0-18.3-14.8-33.1-33.1-33.1c-4.7,0-9.2,1-13.3,2.8    c-11.6-12.8-23.1-25.5-34.6-38.1c-1.3-1.2-2.6-2.7-3.6-4.1c0.6-2.5,1.2-5,1.8-7.5C83.6,365.4,117.3,374.1,140.9,382.2z     M369.3,618.5c12.6,14.6,14.7,32.9,33,41.4c20.8,9.7,43.8,4,61.7,21.1c32.6,31.1,39,102.3,40.2,142.7c0.1,4.7-1.7,25-1.5,29.6    c-18.3-20.2-36.9-40.7-55.6-61.3c1.8-4.1,2.8-8.6,2.8-13.3c0-18.3-14.8-33.1-33.1-33.1c-3.6,0-7,0.6-10.2,1.6    c-39.7-43.9-80-88.6-120.3-133.2l2.7-6.2l9.2-7.2l41.8-5.4C349.8,602.5,360.3,608,369.3,618.5z M148.8,722.7    c-6.5-8.2-12.7-16.6-18.6-25.2l21.4,2.7L148.8,722.7z M140.2,678.5l-14.5,12.3c-11.6-17.8-21.8-36.5-30.5-56.1l27.2-3.4l14.1-9.7    l110.7-14.3l-83,65.2L140.2,678.5z M91,624.8c-3.5-8.4-6.7-16.9-9.6-25.5l18.3,14.3L91,624.8z M66.8,394.4l29.3,33.2    c-4.4,5.6-7,12.7-7,20.3c0,18.3,14.8,33.1,33.1,33.1c6.2,0,12-1.7,17-4.7l96,108.7l-101.8,14l-15.9-8.1l-37.3,4.6    c-13.1-40-20.1-82.6-20.1-127C60.1,443.2,62.4,418.4,66.8,394.4z M153.7,728.8l22.6-13.2l5-24.1l68.6-53.3l-40.5,94.4l-15.2,9.5    l-9.1,20.5C174,751.9,163.5,740.6,153.7,728.8z M210.9,785.5c-5.2-4.2-10.3-8.6-15.2-13l8.9-3.4L210.9,785.5z M217.3,790.5    l14.2-31.9l-1-17L278,633.4l111.8,126.5c-3.7,5.3-5.9,11.8-5.9,18.8c0,18.3,14.8,33.1,33.1,33.1c5.5,0,10.7-1.4,15.3-3.8l60.1,68    c0.2,0,0.5,0.1,1,0.1c-8.2,0.5-16.5,0.7-24.8,0.7C373.8,876.9,286.5,844.7,217.3,790.5z M500.5,875.7c3.4-0.7,7.2-2.4,10.6-5.8    c33.4-34.4,2.2-163.9-22.6-197.3c-25.2-34-61.8-56.8-94.6-84.3L542.5,569l-24.2,35.6l80.3-52.8l-94.7-33.3l29.4,25.6l-163.1,22.4    c-4-4.1-7.8-8.3-11.4-12.8l176.3-136.9l9,39.1l54.7-102.2l-126.9,34l42.1,10L342.9,532.3c-4.2-6.2-8.3-12.6-12.3-19l64.2-146.5    l18,39.1l-3.8-96l-77.4,63.9l37.1-12l-54,125.7c-16.8-27.2-34.6-53.5-60.3-72.9c-40.3-30.4-113.9-71-164.4-70.2    c-4.2,0.1-8.3,1.8-12.2,4.5C129,181.7,284.5,60.1,468.5,60.1c102.3,0,195.8,37.6,267.5,99.8c-12.2-4.2-25.3-6.5-38.9-6.5    c-65.6,0-118.8,53.2-118.8,118.8S631.5,391,697.1,391s118.7-53.4,118.7-119c0-7.4-0.7-14.7-2-21.8c40,63.1,63.1,138,63.1,218.2    C876.9,683.3,711.1,859.4,500.5,875.7z"/>
		<circle cx="736.1" cy="542.7" r="43.6"/>
		<circle cx="447.5" cy="178.8" r="43.6"/>
	</g>
</g>
</svg>
